<mxfile host="app.diagrams.net" modified="2023-10-19T18:33:38.645Z" agent="Mozilla/5.0 (X11; Linux x86_64; rv:109.0) Gecko/20100101 Firefox/114.0" etag="QE1rARxZLlRYpK5B7XAw" version="22.0.5" type="github">
  <diagram name="Página-1" id="DKeD82Vk-w5TZSfn5BW3">
    <mxGraphModel dx="2261" dy="1964" grid="1" gridSize="10" guides="1" tooltips="1" connect="1" arrows="1" fold="1" page="1" pageScale="1" pageWidth="827" pageHeight="1169" math="0" shadow="0">
      <root>
        <mxCell id="0" />
        <mxCell id="1" parent="0" />
        <mxCell id="ukQrKVvzPKOv_mX5zQSp-1" value="&lt;br&gt;&lt;br&gt;&lt;br&gt;&#x9;&lt;br&gt;&#x9;&lt;br&gt;&#x9;&lt;br&gt;&#x9;&lt;br&gt;&lt;br&gt;&lt;br&gt;&lt;ol type=&quot;a&quot;&gt;&lt;li&gt;&lt;p style=&quot;orphans: 2; widows: 2; margin-bottom: 0cm&quot; align=&quot;left&quot;&gt;&lt;br&gt;&lt;span style=&quot;white-space: pre;&quot;&gt;&amp;nbsp;&amp;nbsp;&amp;nbsp;&amp;nbsp;&lt;/span&gt;Una editorial publica muchos libros, un libro es editado por una&lt;br&gt;&lt;span style=&quot;white-space: pre;&quot;&gt;&amp;nbsp;&amp;nbsp;&amp;nbsp;&amp;nbsp;&lt;/span&gt;sola editorial.&lt;/p&gt;&lt;br&gt;&lt;span style=&quot;white-space: pre;&quot;&gt;&amp;nbsp;&amp;nbsp;&amp;nbsp;&amp;nbsp;&lt;/span&gt;&lt;/li&gt;&lt;li&gt;&lt;p style=&quot;orphans: 2; widows: 2; margin-bottom: 0cm&quot; align=&quot;left&quot;&gt;&lt;br&gt;&lt;span style=&quot;white-space: pre;&quot;&gt;&amp;nbsp;&amp;nbsp;&amp;nbsp;&amp;nbsp;&lt;/span&gt;Un autor corrige muchos libros, un libro puede ser corregido por&lt;br&gt;&lt;span style=&quot;white-space: pre;&quot;&gt;&amp;nbsp;&amp;nbsp;&amp;nbsp;&amp;nbsp;&lt;/span&gt;muchos autores.&lt;/p&gt;&lt;br&gt;&lt;span style=&quot;white-space: pre;&quot;&gt;&amp;nbsp;&amp;nbsp;&amp;nbsp;&amp;nbsp;&lt;/span&gt;&lt;/li&gt;&lt;li&gt;&lt;p style=&quot;orphans: 2; widows: 2; margin-bottom: 0cm&quot; align=&quot;left&quot;&gt;&lt;br&gt;&lt;span style=&quot;white-space: pre;&quot;&gt;&amp;nbsp;&amp;nbsp;&amp;nbsp;&amp;nbsp;&lt;/span&gt;Un tema consta de varios temas. Un tema puede formar parte 1 o&lt;br&gt;&lt;span style=&quot;white-space: pre;&quot;&gt;&amp;nbsp;&amp;nbsp;&amp;nbsp;&amp;nbsp;&lt;/span&gt;varios temas. &lt;br&gt;&lt;span style=&quot;white-space: pre;&quot;&gt;&amp;nbsp;&amp;nbsp;&amp;nbsp;&amp;nbsp;&lt;/span&gt;&lt;/p&gt;&lt;br&gt;&lt;span style=&quot;white-space: pre;&quot;&gt;&amp;nbsp;&amp;nbsp;&amp;nbsp;&amp;nbsp;&lt;/span&gt;&lt;/li&gt;&lt;li&gt;&lt;p style=&quot;orphans: 2; widows: 2; margin-bottom: 0cm&quot; align=&quot;left&quot;&gt;&lt;br&gt;&lt;span style=&quot;white-space: pre;&quot;&gt;&amp;nbsp;&amp;nbsp;&amp;nbsp;&amp;nbsp;&lt;/span&gt;Un libro es escrito por una sola persona. Muchos libros pueden ser&lt;br&gt;&lt;span style=&quot;white-space: pre;&quot;&gt;&amp;nbsp;&amp;nbsp;&amp;nbsp;&amp;nbsp;&lt;/span&gt;escritos por una persona.&lt;/p&gt;&lt;span style=&quot;white-space: pre;&quot;&gt;&amp;nbsp;&amp;nbsp;&amp;nbsp;&amp;nbsp;&lt;/span&gt;&lt;/li&gt;&lt;li&gt;&lt;p style=&quot;orphans: 2; widows: 2; margin-bottom: 0cm&quot; align=&quot;left&quot;&gt;&lt;br&gt;&lt;span style=&quot;white-space: pre;&quot;&gt;&amp;nbsp;&amp;nbsp;&amp;nbsp;&amp;nbsp;&lt;/span&gt;Un libro puede ser escrito por muchas&lt;br&gt;&lt;span style=&quot;white-space: pre;&quot;&gt;&amp;nbsp;&amp;nbsp;&amp;nbsp;&amp;nbsp;&lt;/span&gt;personas y una persona puede escribir muchos libros.&lt;/p&gt;&lt;br&gt;&lt;span style=&quot;white-space: pre;&quot;&gt;&amp;nbsp;&amp;nbsp;&amp;nbsp;&amp;nbsp;&lt;/span&gt;&lt;/li&gt;&lt;li&gt;&lt;p style=&quot;orphans: 2; widows: 2; margin-bottom: 0cm&quot; align=&quot;left&quot;&gt;&lt;br&gt;&lt;span style=&quot;white-space: pre;&quot;&gt;&amp;nbsp;&amp;nbsp;&amp;nbsp;&amp;nbsp;&lt;/span&gt;Un autor escribirá 1 o más documentos. Un documento puede ser&lt;br&gt;&lt;span style=&quot;white-space: pre;&quot;&gt;&amp;nbsp;&amp;nbsp;&amp;nbsp;&amp;nbsp;&lt;/span&gt;escrito por 0 (anónimo) o más autores.&lt;/p&gt;&lt;br&gt;&lt;span style=&quot;white-space: pre;&quot;&gt;&amp;nbsp;&amp;nbsp;&amp;nbsp;&amp;nbsp;&lt;/span&gt;&lt;/li&gt;&lt;li&gt;&lt;p style=&quot;orphans: 2; widows: 2; margin-bottom: 0cm&quot; align=&quot;left&quot;&gt;&lt;br&gt;&lt;span style=&quot;white-space: pre;&quot;&gt;&amp;nbsp;&amp;nbsp;&amp;nbsp;&amp;nbsp;&lt;/span&gt;Un autor escribirá 1 o más documentos. Un documento puede ser&lt;br&gt;&lt;span style=&quot;white-space: pre;&quot;&gt;&amp;nbsp;&amp;nbsp;&amp;nbsp;&amp;nbsp;&lt;/span&gt;escrito por 1 o más autores.&lt;/p&gt;&lt;br&gt;&lt;span style=&quot;white-space: pre;&quot;&gt;&amp;nbsp;&amp;nbsp;&amp;nbsp;&amp;nbsp;&lt;/span&gt;&lt;/li&gt;&lt;li&gt;&lt;p style=&quot;orphans: 2; widows: 2; margin-bottom: 0cm&quot; align=&quot;left&quot;&gt;&lt;br&gt;&lt;span style=&quot;white-space: pre;&quot;&gt;&amp;nbsp;&amp;nbsp;&amp;nbsp;&amp;nbsp;&lt;/span&gt;Una Institución se compone de ninguno o más Departamentos. Un&lt;br&gt;&lt;span style=&quot;white-space: pre;&quot;&gt;&amp;nbsp;&amp;nbsp;&amp;nbsp;&amp;nbsp;&lt;/span&gt;Departamento pertenece a una sola Institución.&lt;/p&gt;&lt;br&gt;&lt;span style=&quot;white-space: pre;&quot;&gt;&amp;nbsp;&amp;nbsp;&amp;nbsp;&amp;nbsp;&lt;/span&gt;&lt;/li&gt;&lt;li&gt;&lt;p style=&quot;orphans: 2; widows: 2; margin-bottom: 0cm&quot; align=&quot;left&quot;&gt;&lt;br&gt;&lt;span style=&quot;white-space: pre;&quot;&gt;&amp;nbsp;&amp;nbsp;&amp;nbsp;&amp;nbsp;&lt;/span&gt;De un Libro hay 1 o más ejemplares. Los Ejemplares serán del mismo&lt;br&gt;&lt;span style=&quot;white-space: pre;&quot;&gt;&amp;nbsp;&amp;nbsp;&amp;nbsp;&amp;nbsp;&lt;/span&gt;Libro.&lt;/p&gt;&lt;br&gt;&lt;span style=&quot;white-space: pre;&quot;&gt;&amp;nbsp;&amp;nbsp;&amp;nbsp;&amp;nbsp;&lt;/span&gt;&lt;/li&gt;&lt;li&gt;&lt;p style=&quot;orphans: 2; widows: 2; margin-bottom: 0cm&quot; align=&quot;left&quot;&gt;&lt;br&gt;&lt;span style=&quot;white-space: pre;&quot;&gt;&amp;nbsp;&amp;nbsp;&amp;nbsp;&amp;nbsp;&lt;/span&gt;Un libro es editado por una única editorial Una editorial puede&lt;br&gt;&lt;span style=&quot;white-space: pre;&quot;&gt;&amp;nbsp;&amp;nbsp;&amp;nbsp;&amp;nbsp;&lt;/span&gt;editar ninguno o varios libros.&lt;/p&gt;&lt;br&gt;&lt;span style=&quot;white-space: pre;&quot;&gt;&amp;nbsp;&amp;nbsp;&amp;nbsp;&amp;nbsp;&lt;/span&gt;&lt;/li&gt;&lt;li&gt;&lt;p style=&quot;orphans: 2; widows: 2; margin-bottom: 0cm&quot; align=&quot;left&quot;&gt;&lt;br&gt;&lt;span style=&quot;white-space: pre;&quot;&gt;&amp;nbsp;&amp;nbsp;&amp;nbsp;&amp;nbsp;&lt;/span&gt;Un empleado puede tener ninguno o más Familiares. Solo un Familiar&lt;br&gt;&lt;span style=&quot;white-space: pre;&quot;&gt;&amp;nbsp;&amp;nbsp;&amp;nbsp;&amp;nbsp;&lt;/span&gt;puede estar como Empleado.&lt;/p&gt;&lt;br&gt;&lt;span style=&quot;white-space: pre;&quot;&gt;&amp;nbsp;&amp;nbsp;&amp;nbsp;&amp;nbsp;&lt;/span&gt;&lt;/li&gt;&lt;li&gt;&lt;p style=&quot;orphans: 2; widows: 2; margin-bottom: 0cm&quot; align=&quot;left&quot;&gt;&lt;br&gt;&lt;span style=&quot;white-space: pre;&quot;&gt;&amp;nbsp;&amp;nbsp;&amp;nbsp;&amp;nbsp;&lt;/span&gt;En un Departamento puede haber ninguno o muchos Profesores. Un&lt;br&gt;&lt;span style=&quot;white-space: pre;&quot;&gt;&amp;nbsp;&amp;nbsp;&amp;nbsp;&amp;nbsp;&lt;/span&gt;Profesor solo pertenece a un Departamento.&lt;/p&gt;&lt;br&gt;&lt;span style=&quot;white-space: pre;&quot;&gt;&amp;nbsp;&amp;nbsp;&amp;nbsp;&amp;nbsp;&lt;/span&gt;&lt;/li&gt;&lt;li&gt;&lt;p style=&quot;orphans: 2; widows: 2; margin-bottom: 0cm&quot; align=&quot;left&quot;&gt;&lt;br&gt;&lt;span style=&quot;white-space: pre;&quot;&gt;&amp;nbsp;&amp;nbsp;&amp;nbsp;&amp;nbsp;&lt;/span&gt;Una pieza puede estar compuesta de muchos elementos. Un elemento&lt;br&gt;&lt;span style=&quot;white-space: pre;&quot;&gt;&amp;nbsp;&amp;nbsp;&amp;nbsp;&amp;nbsp;&lt;/span&gt;puede formar parte de muchas piezas.&lt;/p&gt;&lt;br&gt;&lt;span style=&quot;white-space: pre;&quot;&gt;&amp;nbsp;&amp;nbsp;&amp;nbsp;&amp;nbsp;&lt;/span&gt;&lt;/li&gt;&lt;li&gt;&lt;p style=&quot;orphans: 2; widows: 2; margin-bottom: 0cm&quot; align=&quot;left&quot;&gt;&lt;br&gt;&lt;span style=&quot;white-space: pre;&quot;&gt;&amp;nbsp;&amp;nbsp;&amp;nbsp;&amp;nbsp;&lt;/span&gt;De un empleado dependen otros muchos pero un empleado depende de&lt;br&gt;&lt;span style=&quot;white-space: pre;&quot;&gt;&amp;nbsp;&amp;nbsp;&amp;nbsp;&amp;nbsp;&lt;/span&gt;solo uno.&lt;/p&gt;&lt;br&gt;&lt;/li&gt;&lt;/ol&gt;&lt;br&gt;&lt;br&gt;&lt;style type=&quot;text/css&quot;&gt;p { line-height: 115%; margin-bottom: 0.25cm; background: transparent }&lt;/style&gt;" style="text;html=1;strokeColor=none;fillColor=none;align=center;verticalAlign=middle;whiteSpace=wrap;rounded=0;" vertex="1" parent="1">
          <mxGeometry x="-230" y="110" width="440" height="1090" as="geometry" />
        </mxCell>
        <mxCell id="ukQrKVvzPKOv_mX5zQSp-2" value="libros" style="rounded=0;whiteSpace=wrap;html=1;" vertex="1" parent="1">
          <mxGeometry x="645" y="110" width="80" height="30" as="geometry" />
        </mxCell>
        <mxCell id="ukQrKVvzPKOv_mX5zQSp-6" style="edgeStyle=orthogonalEdgeStyle;rounded=0;orthogonalLoop=1;jettySize=auto;html=1;entryX=0;entryY=0.5;entryDx=0;entryDy=0;endArrow=none;endFill=0;" edge="1" parent="1" source="ukQrKVvzPKOv_mX5zQSp-3" target="ukQrKVvzPKOv_mX5zQSp-4">
          <mxGeometry relative="1" as="geometry" />
        </mxCell>
        <mxCell id="ukQrKVvzPKOv_mX5zQSp-3" value="editorial" style="rounded=0;whiteSpace=wrap;html=1;" vertex="1" parent="1">
          <mxGeometry x="345" y="110" width="80" height="30" as="geometry" />
        </mxCell>
        <mxCell id="ukQrKVvzPKOv_mX5zQSp-7" style="edgeStyle=orthogonalEdgeStyle;rounded=0;orthogonalLoop=1;jettySize=auto;html=1;endArrow=none;endFill=0;" edge="1" parent="1" source="ukQrKVvzPKOv_mX5zQSp-4" target="ukQrKVvzPKOv_mX5zQSp-2">
          <mxGeometry relative="1" as="geometry" />
        </mxCell>
        <mxCell id="ukQrKVvzPKOv_mX5zQSp-4" value="edita" style="rhombus;whiteSpace=wrap;html=1;" vertex="1" parent="1">
          <mxGeometry x="495" y="100" width="70" height="50" as="geometry" />
        </mxCell>
        <mxCell id="ukQrKVvzPKOv_mX5zQSp-33" value="libro" style="rounded=0;whiteSpace=wrap;html=1;" vertex="1" parent="1">
          <mxGeometry x="650" y="200" width="80" height="30" as="geometry" />
        </mxCell>
        <mxCell id="ukQrKVvzPKOv_mX5zQSp-34" style="edgeStyle=orthogonalEdgeStyle;rounded=0;orthogonalLoop=1;jettySize=auto;html=1;entryX=0;entryY=0.5;entryDx=0;entryDy=0;endArrow=none;endFill=0;" edge="1" parent="1" source="ukQrKVvzPKOv_mX5zQSp-35" target="ukQrKVvzPKOv_mX5zQSp-37">
          <mxGeometry relative="1" as="geometry" />
        </mxCell>
        <mxCell id="ukQrKVvzPKOv_mX5zQSp-35" value="autor" style="rounded=0;whiteSpace=wrap;html=1;" vertex="1" parent="1">
          <mxGeometry x="350" y="200" width="80" height="30" as="geometry" />
        </mxCell>
        <mxCell id="ukQrKVvzPKOv_mX5zQSp-36" style="edgeStyle=orthogonalEdgeStyle;rounded=0;orthogonalLoop=1;jettySize=auto;html=1;endArrow=none;endFill=0;" edge="1" parent="1" source="ukQrKVvzPKOv_mX5zQSp-37" target="ukQrKVvzPKOv_mX5zQSp-33">
          <mxGeometry relative="1" as="geometry" />
        </mxCell>
        <mxCell id="ukQrKVvzPKOv_mX5zQSp-37" value="corrige" style="rhombus;whiteSpace=wrap;html=1;" vertex="1" parent="1">
          <mxGeometry x="500" y="190" width="70" height="50" as="geometry" />
        </mxCell>
        <mxCell id="ukQrKVvzPKOv_mX5zQSp-39" style="edgeStyle=orthogonalEdgeStyle;rounded=0;orthogonalLoop=1;jettySize=auto;html=1;entryX=0;entryY=0.5;entryDx=0;entryDy=0;endArrow=none;endFill=0;" edge="1" parent="1" source="ukQrKVvzPKOv_mX5zQSp-40" target="ukQrKVvzPKOv_mX5zQSp-42">
          <mxGeometry relative="1" as="geometry" />
        </mxCell>
        <mxCell id="ukQrKVvzPKOv_mX5zQSp-40" value="tema" style="rounded=0;whiteSpace=wrap;html=1;" vertex="1" parent="1">
          <mxGeometry x="350" y="290" width="80" height="30" as="geometry" />
        </mxCell>
        <mxCell id="ukQrKVvzPKOv_mX5zQSp-106" style="edgeStyle=orthogonalEdgeStyle;rounded=0;orthogonalLoop=1;jettySize=auto;html=1;entryX=0.5;entryY=0;entryDx=0;entryDy=0;endArrow=none;endFill=0;" edge="1" parent="1" source="ukQrKVvzPKOv_mX5zQSp-42" target="ukQrKVvzPKOv_mX5zQSp-40">
          <mxGeometry relative="1" as="geometry">
            <Array as="points">
              <mxPoint x="535" y="270" />
              <mxPoint x="390" y="270" />
            </Array>
          </mxGeometry>
        </mxCell>
        <mxCell id="ukQrKVvzPKOv_mX5zQSp-42" value="forma parte" style="rhombus;whiteSpace=wrap;html=1;" vertex="1" parent="1">
          <mxGeometry x="500" y="275" width="100" height="60" as="geometry" />
        </mxCell>
        <mxCell id="ukQrKVvzPKOv_mX5zQSp-43" value="libro" style="rounded=0;whiteSpace=wrap;html=1;" vertex="1" parent="1">
          <mxGeometry x="650" y="380" width="80" height="30" as="geometry" />
        </mxCell>
        <mxCell id="ukQrKVvzPKOv_mX5zQSp-44" style="edgeStyle=orthogonalEdgeStyle;rounded=0;orthogonalLoop=1;jettySize=auto;html=1;entryX=0;entryY=0.5;entryDx=0;entryDy=0;endArrow=none;endFill=0;" edge="1" parent="1" source="ukQrKVvzPKOv_mX5zQSp-45" target="ukQrKVvzPKOv_mX5zQSp-47">
          <mxGeometry relative="1" as="geometry" />
        </mxCell>
        <mxCell id="ukQrKVvzPKOv_mX5zQSp-45" value="persona" style="rounded=0;whiteSpace=wrap;html=1;" vertex="1" parent="1">
          <mxGeometry x="350" y="380" width="80" height="30" as="geometry" />
        </mxCell>
        <mxCell id="ukQrKVvzPKOv_mX5zQSp-46" style="edgeStyle=orthogonalEdgeStyle;rounded=0;orthogonalLoop=1;jettySize=auto;html=1;endArrow=none;endFill=0;" edge="1" parent="1" source="ukQrKVvzPKOv_mX5zQSp-47" target="ukQrKVvzPKOv_mX5zQSp-43">
          <mxGeometry relative="1" as="geometry" />
        </mxCell>
        <mxCell id="ukQrKVvzPKOv_mX5zQSp-47" value="escribe" style="rhombus;whiteSpace=wrap;html=1;" vertex="1" parent="1">
          <mxGeometry x="500" y="370" width="70" height="50" as="geometry" />
        </mxCell>
        <mxCell id="ukQrKVvzPKOv_mX5zQSp-48" value="libro" style="rounded=0;whiteSpace=wrap;html=1;" vertex="1" parent="1">
          <mxGeometry x="650" y="480" width="80" height="30" as="geometry" />
        </mxCell>
        <mxCell id="ukQrKVvzPKOv_mX5zQSp-49" style="edgeStyle=orthogonalEdgeStyle;rounded=0;orthogonalLoop=1;jettySize=auto;html=1;entryX=0;entryY=0.5;entryDx=0;entryDy=0;endArrow=none;endFill=0;" edge="1" parent="1" source="ukQrKVvzPKOv_mX5zQSp-50" target="ukQrKVvzPKOv_mX5zQSp-52">
          <mxGeometry relative="1" as="geometry" />
        </mxCell>
        <mxCell id="ukQrKVvzPKOv_mX5zQSp-50" value="persona" style="rounded=0;whiteSpace=wrap;html=1;" vertex="1" parent="1">
          <mxGeometry x="350" y="480" width="80" height="30" as="geometry" />
        </mxCell>
        <mxCell id="ukQrKVvzPKOv_mX5zQSp-51" style="edgeStyle=orthogonalEdgeStyle;rounded=0;orthogonalLoop=1;jettySize=auto;html=1;endArrow=none;endFill=0;" edge="1" parent="1" source="ukQrKVvzPKOv_mX5zQSp-52" target="ukQrKVvzPKOv_mX5zQSp-48">
          <mxGeometry relative="1" as="geometry" />
        </mxCell>
        <mxCell id="ukQrKVvzPKOv_mX5zQSp-52" value="publica" style="rhombus;whiteSpace=wrap;html=1;" vertex="1" parent="1">
          <mxGeometry x="500" y="470" width="70" height="50" as="geometry" />
        </mxCell>
        <mxCell id="ukQrKVvzPKOv_mX5zQSp-53" value="documento" style="rounded=0;whiteSpace=wrap;html=1;" vertex="1" parent="1">
          <mxGeometry x="650" y="570" width="80" height="30" as="geometry" />
        </mxCell>
        <mxCell id="ukQrKVvzPKOv_mX5zQSp-54" style="edgeStyle=orthogonalEdgeStyle;rounded=0;orthogonalLoop=1;jettySize=auto;html=1;entryX=0;entryY=0.5;entryDx=0;entryDy=0;endArrow=none;endFill=0;" edge="1" parent="1" source="ukQrKVvzPKOv_mX5zQSp-55" target="ukQrKVvzPKOv_mX5zQSp-57">
          <mxGeometry relative="1" as="geometry" />
        </mxCell>
        <mxCell id="ukQrKVvzPKOv_mX5zQSp-55" value="autor" style="rounded=0;whiteSpace=wrap;html=1;" vertex="1" parent="1">
          <mxGeometry x="350" y="570" width="80" height="30" as="geometry" />
        </mxCell>
        <mxCell id="ukQrKVvzPKOv_mX5zQSp-56" style="edgeStyle=orthogonalEdgeStyle;rounded=0;orthogonalLoop=1;jettySize=auto;html=1;endArrow=none;endFill=0;" edge="1" parent="1" source="ukQrKVvzPKOv_mX5zQSp-57" target="ukQrKVvzPKOv_mX5zQSp-53">
          <mxGeometry relative="1" as="geometry" />
        </mxCell>
        <mxCell id="ukQrKVvzPKOv_mX5zQSp-57" value="escribe" style="rhombus;whiteSpace=wrap;html=1;" vertex="1" parent="1">
          <mxGeometry x="500" y="560" width="70" height="50" as="geometry" />
        </mxCell>
        <mxCell id="ukQrKVvzPKOv_mX5zQSp-58" value="documento" style="rounded=0;whiteSpace=wrap;html=1;" vertex="1" parent="1">
          <mxGeometry x="650" y="650" width="80" height="30" as="geometry" />
        </mxCell>
        <mxCell id="ukQrKVvzPKOv_mX5zQSp-59" style="edgeStyle=orthogonalEdgeStyle;rounded=0;orthogonalLoop=1;jettySize=auto;html=1;entryX=0;entryY=0.5;entryDx=0;entryDy=0;endArrow=none;endFill=0;" edge="1" parent="1" source="ukQrKVvzPKOv_mX5zQSp-60" target="ukQrKVvzPKOv_mX5zQSp-62">
          <mxGeometry relative="1" as="geometry" />
        </mxCell>
        <mxCell id="ukQrKVvzPKOv_mX5zQSp-60" value="autor" style="rounded=0;whiteSpace=wrap;html=1;" vertex="1" parent="1">
          <mxGeometry x="350" y="650" width="80" height="30" as="geometry" />
        </mxCell>
        <mxCell id="ukQrKVvzPKOv_mX5zQSp-61" style="edgeStyle=orthogonalEdgeStyle;rounded=0;orthogonalLoop=1;jettySize=auto;html=1;endArrow=none;endFill=0;" edge="1" parent="1" source="ukQrKVvzPKOv_mX5zQSp-62" target="ukQrKVvzPKOv_mX5zQSp-58">
          <mxGeometry relative="1" as="geometry" />
        </mxCell>
        <mxCell id="ukQrKVvzPKOv_mX5zQSp-62" value="escribe" style="rhombus;whiteSpace=wrap;html=1;" vertex="1" parent="1">
          <mxGeometry x="500" y="640" width="70" height="50" as="geometry" />
        </mxCell>
        <mxCell id="ukQrKVvzPKOv_mX5zQSp-63" value="departamento" style="rounded=0;whiteSpace=wrap;html=1;" vertex="1" parent="1">
          <mxGeometry x="650" y="730" width="80" height="30" as="geometry" />
        </mxCell>
        <mxCell id="ukQrKVvzPKOv_mX5zQSp-64" style="edgeStyle=orthogonalEdgeStyle;rounded=0;orthogonalLoop=1;jettySize=auto;html=1;entryX=0;entryY=0.5;entryDx=0;entryDy=0;endArrow=none;endFill=0;" edge="1" parent="1" source="ukQrKVvzPKOv_mX5zQSp-65" target="ukQrKVvzPKOv_mX5zQSp-67">
          <mxGeometry relative="1" as="geometry" />
        </mxCell>
        <mxCell id="ukQrKVvzPKOv_mX5zQSp-65" value="institucion" style="rounded=0;whiteSpace=wrap;html=1;" vertex="1" parent="1">
          <mxGeometry x="350" y="730" width="80" height="30" as="geometry" />
        </mxCell>
        <mxCell id="ukQrKVvzPKOv_mX5zQSp-66" style="edgeStyle=orthogonalEdgeStyle;rounded=0;orthogonalLoop=1;jettySize=auto;html=1;endArrow=none;endFill=0;" edge="1" parent="1" source="ukQrKVvzPKOv_mX5zQSp-67" target="ukQrKVvzPKOv_mX5zQSp-63">
          <mxGeometry relative="1" as="geometry" />
        </mxCell>
        <mxCell id="ukQrKVvzPKOv_mX5zQSp-67" value="se compone" style="rhombus;whiteSpace=wrap;html=1;" vertex="1" parent="1">
          <mxGeometry x="500" y="720" width="70" height="50" as="geometry" />
        </mxCell>
        <mxCell id="ukQrKVvzPKOv_mX5zQSp-68" value="ejemplares" style="rounded=0;whiteSpace=wrap;html=1;" vertex="1" parent="1">
          <mxGeometry x="650" y="810" width="80" height="30" as="geometry" />
        </mxCell>
        <mxCell id="ukQrKVvzPKOv_mX5zQSp-69" style="edgeStyle=orthogonalEdgeStyle;rounded=0;orthogonalLoop=1;jettySize=auto;html=1;entryX=0;entryY=0.5;entryDx=0;entryDy=0;endArrow=none;endFill=0;" edge="1" parent="1" source="ukQrKVvzPKOv_mX5zQSp-70" target="ukQrKVvzPKOv_mX5zQSp-72">
          <mxGeometry relative="1" as="geometry" />
        </mxCell>
        <mxCell id="ukQrKVvzPKOv_mX5zQSp-70" value="libro" style="rounded=0;whiteSpace=wrap;html=1;" vertex="1" parent="1">
          <mxGeometry x="350" y="810" width="80" height="30" as="geometry" />
        </mxCell>
        <mxCell id="ukQrKVvzPKOv_mX5zQSp-71" style="edgeStyle=orthogonalEdgeStyle;rounded=0;orthogonalLoop=1;jettySize=auto;html=1;endArrow=none;endFill=0;" edge="1" parent="1" source="ukQrKVvzPKOv_mX5zQSp-72" target="ukQrKVvzPKOv_mX5zQSp-68">
          <mxGeometry relative="1" as="geometry" />
        </mxCell>
        <mxCell id="ukQrKVvzPKOv_mX5zQSp-72" value="hay" style="rhombus;whiteSpace=wrap;html=1;" vertex="1" parent="1">
          <mxGeometry x="500" y="800" width="70" height="50" as="geometry" />
        </mxCell>
        <mxCell id="ukQrKVvzPKOv_mX5zQSp-73" value="libro" style="rounded=0;whiteSpace=wrap;html=1;" vertex="1" parent="1">
          <mxGeometry x="650" y="900" width="80" height="30" as="geometry" />
        </mxCell>
        <mxCell id="ukQrKVvzPKOv_mX5zQSp-74" style="edgeStyle=orthogonalEdgeStyle;rounded=0;orthogonalLoop=1;jettySize=auto;html=1;entryX=0;entryY=0.5;entryDx=0;entryDy=0;endArrow=none;endFill=0;" edge="1" parent="1" source="ukQrKVvzPKOv_mX5zQSp-75" target="ukQrKVvzPKOv_mX5zQSp-77">
          <mxGeometry relative="1" as="geometry" />
        </mxCell>
        <mxCell id="ukQrKVvzPKOv_mX5zQSp-75" value="editorial" style="rounded=0;whiteSpace=wrap;html=1;" vertex="1" parent="1">
          <mxGeometry x="350" y="900" width="80" height="30" as="geometry" />
        </mxCell>
        <mxCell id="ukQrKVvzPKOv_mX5zQSp-76" style="edgeStyle=orthogonalEdgeStyle;rounded=0;orthogonalLoop=1;jettySize=auto;html=1;endArrow=none;endFill=0;" edge="1" parent="1" source="ukQrKVvzPKOv_mX5zQSp-77" target="ukQrKVvzPKOv_mX5zQSp-73">
          <mxGeometry relative="1" as="geometry" />
        </mxCell>
        <mxCell id="ukQrKVvzPKOv_mX5zQSp-77" value="edita" style="rhombus;whiteSpace=wrap;html=1;" vertex="1" parent="1">
          <mxGeometry x="500" y="890" width="70" height="50" as="geometry" />
        </mxCell>
        <mxCell id="ukQrKVvzPKOv_mX5zQSp-78" value="familiar" style="rounded=0;whiteSpace=wrap;html=1;" vertex="1" parent="1">
          <mxGeometry x="645" y="990" width="80" height="30" as="geometry" />
        </mxCell>
        <mxCell id="ukQrKVvzPKOv_mX5zQSp-79" style="edgeStyle=orthogonalEdgeStyle;rounded=0;orthogonalLoop=1;jettySize=auto;html=1;entryX=0;entryY=0.5;entryDx=0;entryDy=0;endArrow=none;endFill=0;" edge="1" parent="1" source="ukQrKVvzPKOv_mX5zQSp-80" target="ukQrKVvzPKOv_mX5zQSp-82">
          <mxGeometry relative="1" as="geometry" />
        </mxCell>
        <mxCell id="ukQrKVvzPKOv_mX5zQSp-80" value="empleado" style="rounded=0;whiteSpace=wrap;html=1;" vertex="1" parent="1">
          <mxGeometry x="345" y="990" width="80" height="30" as="geometry" />
        </mxCell>
        <mxCell id="ukQrKVvzPKOv_mX5zQSp-81" style="edgeStyle=orthogonalEdgeStyle;rounded=0;orthogonalLoop=1;jettySize=auto;html=1;endArrow=none;endFill=0;" edge="1" parent="1" source="ukQrKVvzPKOv_mX5zQSp-82" target="ukQrKVvzPKOv_mX5zQSp-78">
          <mxGeometry relative="1" as="geometry" />
        </mxCell>
        <mxCell id="ukQrKVvzPKOv_mX5zQSp-82" value="tiene" style="rhombus;whiteSpace=wrap;html=1;" vertex="1" parent="1">
          <mxGeometry x="495" y="980" width="70" height="50" as="geometry" />
        </mxCell>
        <mxCell id="ukQrKVvzPKOv_mX5zQSp-83" value="profesores" style="rounded=0;whiteSpace=wrap;html=1;" vertex="1" parent="1">
          <mxGeometry x="650" y="1070" width="80" height="30" as="geometry" />
        </mxCell>
        <mxCell id="ukQrKVvzPKOv_mX5zQSp-84" style="edgeStyle=orthogonalEdgeStyle;rounded=0;orthogonalLoop=1;jettySize=auto;html=1;entryX=0;entryY=0.5;entryDx=0;entryDy=0;endArrow=none;endFill=0;" edge="1" parent="1" source="ukQrKVvzPKOv_mX5zQSp-85" target="ukQrKVvzPKOv_mX5zQSp-87">
          <mxGeometry relative="1" as="geometry" />
        </mxCell>
        <mxCell id="ukQrKVvzPKOv_mX5zQSp-85" value="departamento" style="rounded=0;whiteSpace=wrap;html=1;" vertex="1" parent="1">
          <mxGeometry x="350" y="1070" width="80" height="30" as="geometry" />
        </mxCell>
        <mxCell id="ukQrKVvzPKOv_mX5zQSp-86" style="edgeStyle=orthogonalEdgeStyle;rounded=0;orthogonalLoop=1;jettySize=auto;html=1;endArrow=none;endFill=0;" edge="1" parent="1" source="ukQrKVvzPKOv_mX5zQSp-87" target="ukQrKVvzPKOv_mX5zQSp-83">
          <mxGeometry relative="1" as="geometry" />
        </mxCell>
        <mxCell id="ukQrKVvzPKOv_mX5zQSp-87" value="tiene" style="rhombus;whiteSpace=wrap;html=1;" vertex="1" parent="1">
          <mxGeometry x="500" y="1060" width="70" height="50" as="geometry" />
        </mxCell>
        <mxCell id="ukQrKVvzPKOv_mX5zQSp-88" value="pieza" style="rounded=0;whiteSpace=wrap;html=1;" vertex="1" parent="1">
          <mxGeometry x="650" y="1150" width="80" height="30" as="geometry" />
        </mxCell>
        <mxCell id="ukQrKVvzPKOv_mX5zQSp-89" style="edgeStyle=orthogonalEdgeStyle;rounded=0;orthogonalLoop=1;jettySize=auto;html=1;entryX=0;entryY=0.5;entryDx=0;entryDy=0;endArrow=none;endFill=0;" edge="1" parent="1" source="ukQrKVvzPKOv_mX5zQSp-90" target="ukQrKVvzPKOv_mX5zQSp-92">
          <mxGeometry relative="1" as="geometry" />
        </mxCell>
        <mxCell id="ukQrKVvzPKOv_mX5zQSp-90" value="elemento" style="rounded=0;whiteSpace=wrap;html=1;" vertex="1" parent="1">
          <mxGeometry x="350" y="1150" width="80" height="30" as="geometry" />
        </mxCell>
        <mxCell id="ukQrKVvzPKOv_mX5zQSp-91" style="edgeStyle=orthogonalEdgeStyle;rounded=0;orthogonalLoop=1;jettySize=auto;html=1;endArrow=none;endFill=0;" edge="1" parent="1" source="ukQrKVvzPKOv_mX5zQSp-92" target="ukQrKVvzPKOv_mX5zQSp-88">
          <mxGeometry relative="1" as="geometry" />
        </mxCell>
        <mxCell id="ukQrKVvzPKOv_mX5zQSp-92" value="compone" style="rhombus;whiteSpace=wrap;html=1;" vertex="1" parent="1">
          <mxGeometry x="500" y="1140" width="70" height="50" as="geometry" />
        </mxCell>
        <mxCell id="ukQrKVvzPKOv_mX5zQSp-94" style="edgeStyle=orthogonalEdgeStyle;rounded=0;orthogonalLoop=1;jettySize=auto;html=1;entryX=0;entryY=0.5;entryDx=0;entryDy=0;endArrow=none;endFill=0;" edge="1" parent="1" source="ukQrKVvzPKOv_mX5zQSp-95" target="ukQrKVvzPKOv_mX5zQSp-97">
          <mxGeometry relative="1" as="geometry" />
        </mxCell>
        <mxCell id="ukQrKVvzPKOv_mX5zQSp-95" value="empleado" style="rounded=0;whiteSpace=wrap;html=1;" vertex="1" parent="1">
          <mxGeometry x="350" y="1230" width="80" height="30" as="geometry" />
        </mxCell>
        <mxCell id="ukQrKVvzPKOv_mX5zQSp-96" style="edgeStyle=orthogonalEdgeStyle;rounded=0;orthogonalLoop=1;jettySize=auto;html=1;endArrow=none;endFill=0;entryX=0.5;entryY=1;entryDx=0;entryDy=0;" edge="1" parent="1" source="ukQrKVvzPKOv_mX5zQSp-97" target="ukQrKVvzPKOv_mX5zQSp-95">
          <mxGeometry relative="1" as="geometry">
            <mxPoint x="650" y="1245" as="targetPoint" />
            <Array as="points">
              <mxPoint x="535" y="1290" />
              <mxPoint x="390" y="1290" />
            </Array>
          </mxGeometry>
        </mxCell>
        <mxCell id="ukQrKVvzPKOv_mX5zQSp-97" value="depende" style="rhombus;whiteSpace=wrap;html=1;" vertex="1" parent="1">
          <mxGeometry x="500" y="1220" width="70" height="50" as="geometry" />
        </mxCell>
        <mxCell id="ukQrKVvzPKOv_mX5zQSp-98" value="1:1" style="text;html=1;strokeColor=none;fillColor=none;align=center;verticalAlign=middle;whiteSpace=wrap;rounded=0;" vertex="1" parent="1">
          <mxGeometry x="580" y="100" width="60" height="30" as="geometry" />
        </mxCell>
        <mxCell id="ukQrKVvzPKOv_mX5zQSp-99" value="1:n" style="text;html=1;align=center;verticalAlign=middle;resizable=0;points=[];autosize=1;strokeColor=none;fillColor=none;" vertex="1" parent="1">
          <mxGeometry x="510" y="70" width="40" height="30" as="geometry" />
        </mxCell>
        <mxCell id="ukQrKVvzPKOv_mX5zQSp-101" value="1:n" style="text;html=1;align=center;verticalAlign=middle;resizable=0;points=[];autosize=1;strokeColor=none;fillColor=none;" vertex="1" parent="1">
          <mxGeometry x="440" y="100" width="40" height="30" as="geometry" />
        </mxCell>
        <mxCell id="ukQrKVvzPKOv_mX5zQSp-102" value="1:n" style="text;html=1;align=center;verticalAlign=middle;resizable=0;points=[];autosize=1;strokeColor=none;fillColor=none;" vertex="1" parent="1">
          <mxGeometry x="450" y="180" width="40" height="30" as="geometry" />
        </mxCell>
        <mxCell id="ukQrKVvzPKOv_mX5zQSp-103" value="1:1" style="text;html=1;strokeColor=none;fillColor=none;align=center;verticalAlign=middle;whiteSpace=wrap;rounded=0;" vertex="1" parent="1">
          <mxGeometry x="440" y="310" width="60" height="30" as="geometry" />
        </mxCell>
        <mxCell id="ukQrKVvzPKOv_mX5zQSp-104" value="1:n" style="text;html=1;align=center;verticalAlign=middle;resizable=0;points=[];autosize=1;strokeColor=none;fillColor=none;" vertex="1" parent="1">
          <mxGeometry x="590" y="180" width="40" height="30" as="geometry" />
        </mxCell>
        <mxCell id="ukQrKVvzPKOv_mX5zQSp-105" value="n:m" style="text;html=1;align=center;verticalAlign=middle;resizable=0;points=[];autosize=1;strokeColor=none;fillColor=none;" vertex="1" parent="1">
          <mxGeometry x="515" y="170" width="40" height="30" as="geometry" />
        </mxCell>
        <mxCell id="ukQrKVvzPKOv_mX5zQSp-107" value="1:n" style="text;html=1;align=center;verticalAlign=middle;resizable=0;points=[];autosize=1;strokeColor=none;fillColor=none;" vertex="1" parent="1">
          <mxGeometry x="440" y="240" width="40" height="30" as="geometry" />
        </mxCell>
        <mxCell id="ukQrKVvzPKOv_mX5zQSp-108" value="1:n" style="text;html=1;align=center;verticalAlign=middle;resizable=0;points=[];autosize=1;strokeColor=none;fillColor=none;" vertex="1" parent="1">
          <mxGeometry x="580" y="370" width="40" height="30" as="geometry" />
        </mxCell>
        <mxCell id="ukQrKVvzPKOv_mX5zQSp-109" value="1:1" style="text;html=1;strokeColor=none;fillColor=none;align=center;verticalAlign=middle;whiteSpace=wrap;rounded=0;" vertex="1" parent="1">
          <mxGeometry x="435" y="370" width="60" height="30" as="geometry" />
        </mxCell>
        <mxCell id="ukQrKVvzPKOv_mX5zQSp-111" value="1:n" style="text;html=1;align=center;verticalAlign=middle;resizable=0;points=[];autosize=1;strokeColor=none;fillColor=none;" vertex="1" parent="1">
          <mxGeometry x="515" y="350" width="40" height="30" as="geometry" />
        </mxCell>
        <mxCell id="ukQrKVvzPKOv_mX5zQSp-112" value="1:1" style="text;html=1;align=center;verticalAlign=middle;resizable=0;points=[];autosize=1;strokeColor=none;fillColor=none;" vertex="1" parent="1">
          <mxGeometry x="450" y="560" width="40" height="30" as="geometry" />
        </mxCell>
        <mxCell id="ukQrKVvzPKOv_mX5zQSp-113" value="0:n" style="text;html=1;align=center;verticalAlign=middle;resizable=0;points=[];autosize=1;strokeColor=none;fillColor=none;" vertex="1" parent="1">
          <mxGeometry x="585" y="555" width="40" height="30" as="geometry" />
        </mxCell>
        <mxCell id="ukQrKVvzPKOv_mX5zQSp-114" value="1:n" style="text;html=1;align=center;verticalAlign=middle;resizable=0;points=[];autosize=1;strokeColor=none;fillColor=none;" vertex="1" parent="1">
          <mxGeometry x="515" y="530" width="40" height="30" as="geometry" />
        </mxCell>
        <mxCell id="ukQrKVvzPKOv_mX5zQSp-115" value="1:n" style="text;html=1;align=center;verticalAlign=middle;resizable=0;points=[];autosize=1;strokeColor=none;fillColor=none;" vertex="1" parent="1">
          <mxGeometry x="450" y="640" width="40" height="30" as="geometry" />
        </mxCell>
        <mxCell id="ukQrKVvzPKOv_mX5zQSp-116" value="1:n" style="text;html=1;align=center;verticalAlign=middle;resizable=0;points=[];autosize=1;strokeColor=none;fillColor=none;" vertex="1" parent="1">
          <mxGeometry x="580" y="638" width="40" height="30" as="geometry" />
        </mxCell>
        <mxCell id="ukQrKVvzPKOv_mX5zQSp-117" value="n:m" style="text;html=1;align=center;verticalAlign=middle;resizable=0;points=[];autosize=1;strokeColor=none;fillColor=none;" vertex="1" parent="1">
          <mxGeometry x="515" y="620" width="40" height="30" as="geometry" />
        </mxCell>
        <mxCell id="ukQrKVvzPKOv_mX5zQSp-118" value="1:1" style="text;html=1;align=center;verticalAlign=middle;resizable=0;points=[];autosize=1;strokeColor=none;fillColor=none;" vertex="1" parent="1">
          <mxGeometry x="450" y="720" width="40" height="30" as="geometry" />
        </mxCell>
        <mxCell id="ukQrKVvzPKOv_mX5zQSp-119" value="1:n" style="text;html=1;align=center;verticalAlign=middle;resizable=0;points=[];autosize=1;strokeColor=none;fillColor=none;" vertex="1" parent="1">
          <mxGeometry x="595" y="720" width="40" height="30" as="geometry" />
        </mxCell>
        <mxCell id="ukQrKVvzPKOv_mX5zQSp-120" value="1:n" style="text;html=1;align=center;verticalAlign=middle;resizable=0;points=[];autosize=1;strokeColor=none;fillColor=none;" vertex="1" parent="1">
          <mxGeometry x="515" y="700" width="40" height="30" as="geometry" />
        </mxCell>
        <mxCell id="ukQrKVvzPKOv_mX5zQSp-121" value="1:n" style="text;html=1;align=center;verticalAlign=middle;resizable=0;points=[];autosize=1;strokeColor=none;fillColor=none;" vertex="1" parent="1">
          <mxGeometry x="600" y="290" width="40" height="30" as="geometry" />
        </mxCell>
        <mxCell id="ukQrKVvzPKOv_mX5zQSp-122" value="1:1" style="text;html=1;align=center;verticalAlign=middle;resizable=0;points=[];autosize=1;strokeColor=none;fillColor=none;" vertex="1" parent="1">
          <mxGeometry x="450" y="800" width="40" height="30" as="geometry" />
        </mxCell>
        <mxCell id="ukQrKVvzPKOv_mX5zQSp-123" value="1:n" style="text;html=1;align=center;verticalAlign=middle;resizable=0;points=[];autosize=1;strokeColor=none;fillColor=none;" vertex="1" parent="1">
          <mxGeometry x="580" y="800" width="40" height="30" as="geometry" />
        </mxCell>
        <mxCell id="ukQrKVvzPKOv_mX5zQSp-124" value="1:n" style="text;html=1;align=center;verticalAlign=middle;resizable=0;points=[];autosize=1;strokeColor=none;fillColor=none;" vertex="1" parent="1">
          <mxGeometry x="515" y="780" width="40" height="30" as="geometry" />
        </mxCell>
        <mxCell id="ukQrKVvzPKOv_mX5zQSp-125" value="1:1" style="text;html=1;align=center;verticalAlign=middle;resizable=0;points=[];autosize=1;strokeColor=none;fillColor=none;" vertex="1" parent="1">
          <mxGeometry x="450" y="888" width="40" height="30" as="geometry" />
        </mxCell>
        <mxCell id="ukQrKVvzPKOv_mX5zQSp-126" value="0:n" style="text;html=1;align=center;verticalAlign=middle;resizable=0;points=[];autosize=1;strokeColor=none;fillColor=none;" vertex="1" parent="1">
          <mxGeometry x="590" y="888" width="40" height="30" as="geometry" />
        </mxCell>
        <mxCell id="ukQrKVvzPKOv_mX5zQSp-127" value="1:n" style="text;html=1;align=center;verticalAlign=middle;resizable=0;points=[];autosize=1;strokeColor=none;fillColor=none;" vertex="1" parent="1">
          <mxGeometry x="515" y="870" width="40" height="30" as="geometry" />
        </mxCell>
        <mxCell id="ukQrKVvzPKOv_mX5zQSp-128" value="0:n" style="text;html=1;align=center;verticalAlign=middle;resizable=0;points=[];autosize=1;strokeColor=none;fillColor=none;" vertex="1" parent="1">
          <mxGeometry x="590" y="980" width="40" height="30" as="geometry" />
        </mxCell>
        <mxCell id="ukQrKVvzPKOv_mX5zQSp-129" value="1:1" style="text;html=1;align=center;verticalAlign=middle;resizable=0;points=[];autosize=1;strokeColor=none;fillColor=none;" vertex="1" parent="1">
          <mxGeometry x="440" y="980" width="40" height="30" as="geometry" />
        </mxCell>
        <mxCell id="ukQrKVvzPKOv_mX5zQSp-130" value="1:n" style="text;html=1;align=center;verticalAlign=middle;resizable=0;points=[];autosize=1;strokeColor=none;fillColor=none;" vertex="1" parent="1">
          <mxGeometry x="510" y="960" width="40" height="30" as="geometry" />
        </mxCell>
        <mxCell id="ukQrKVvzPKOv_mX5zQSp-131" value="1:1" style="text;html=1;align=center;verticalAlign=middle;resizable=0;points=[];autosize=1;strokeColor=none;fillColor=none;" vertex="1" parent="1">
          <mxGeometry x="450" y="1060" width="40" height="30" as="geometry" />
        </mxCell>
        <mxCell id="ukQrKVvzPKOv_mX5zQSp-132" value="1:n" style="text;html=1;align=center;verticalAlign=middle;resizable=0;points=[];autosize=1;strokeColor=none;fillColor=none;" vertex="1" parent="1">
          <mxGeometry x="590" y="1060" width="40" height="30" as="geometry" />
        </mxCell>
        <mxCell id="ukQrKVvzPKOv_mX5zQSp-133" value="1:n" style="text;html=1;align=center;verticalAlign=middle;resizable=0;points=[];autosize=1;strokeColor=none;fillColor=none;" vertex="1" parent="1">
          <mxGeometry x="515" y="1040" width="40" height="30" as="geometry" />
        </mxCell>
        <mxCell id="ukQrKVvzPKOv_mX5zQSp-134" value="1:n" style="text;html=1;align=center;verticalAlign=middle;resizable=0;points=[];autosize=1;strokeColor=none;fillColor=none;" vertex="1" parent="1">
          <mxGeometry x="440" y="1138" width="40" height="30" as="geometry" />
        </mxCell>
        <mxCell id="ukQrKVvzPKOv_mX5zQSp-135" value="1:n" style="text;html=1;align=center;verticalAlign=middle;resizable=0;points=[];autosize=1;strokeColor=none;fillColor=none;" vertex="1" parent="1">
          <mxGeometry x="585" y="1138" width="40" height="30" as="geometry" />
        </mxCell>
        <mxCell id="ukQrKVvzPKOv_mX5zQSp-136" value="n:m" style="text;html=1;align=center;verticalAlign=middle;resizable=0;points=[];autosize=1;strokeColor=none;fillColor=none;" vertex="1" parent="1">
          <mxGeometry x="515" y="1120" width="40" height="30" as="geometry" />
        </mxCell>
        <mxCell id="ukQrKVvzPKOv_mX5zQSp-137" value="1:1" style="text;html=1;align=center;verticalAlign=middle;resizable=0;points=[];autosize=1;strokeColor=none;fillColor=none;" vertex="1" parent="1">
          <mxGeometry x="440" y="1220" width="40" height="30" as="geometry" />
        </mxCell>
        <mxCell id="ukQrKVvzPKOv_mX5zQSp-138" value="1:n" style="text;html=1;align=center;verticalAlign=middle;resizable=0;points=[];autosize=1;strokeColor=none;fillColor=none;" vertex="1" parent="1">
          <mxGeometry x="440" y="1290" width="40" height="30" as="geometry" />
        </mxCell>
        <mxCell id="ukQrKVvzPKOv_mX5zQSp-139" value="1:n" style="text;html=1;align=center;verticalAlign=middle;resizable=0;points=[];autosize=1;strokeColor=none;fillColor=none;" vertex="1" parent="1">
          <mxGeometry x="565" y="1230" width="40" height="30" as="geometry" />
        </mxCell>
        <mxCell id="ukQrKVvzPKOv_mX5zQSp-150" value="1:n" style="text;html=1;align=center;verticalAlign=middle;resizable=0;points=[];autosize=1;strokeColor=none;fillColor=none;" vertex="1" parent="1">
          <mxGeometry x="445" y="460" width="40" height="30" as="geometry" />
        </mxCell>
        <mxCell id="ukQrKVvzPKOv_mX5zQSp-151" value="1:n" style="text;html=1;align=center;verticalAlign=middle;resizable=0;points=[];autosize=1;strokeColor=none;fillColor=none;" vertex="1" parent="1">
          <mxGeometry x="585" y="460" width="40" height="30" as="geometry" />
        </mxCell>
        <mxCell id="ukQrKVvzPKOv_mX5zQSp-152" value="n:m" style="text;html=1;align=center;verticalAlign=middle;resizable=0;points=[];autosize=1;strokeColor=none;fillColor=none;" vertex="1" parent="1">
          <mxGeometry x="515" y="450" width="40" height="30" as="geometry" />
        </mxCell>
      </root>
    </mxGraphModel>
  </diagram>
</mxfile>
